2.8Hzlow3min_grf.mot
version=1
nRows=20
nColumns 19
inDegrees=yes
endheader
time	1_ground_force_vx	1_ground_force_vy	1_ground_force_vz	1_ground_force_px	1_ground_force_py	1_ground_force_pz	1_ground_torque_x	1_ground_torque_y	1_ground_torque_z	2_ground_force_vx	2_ground_force_vy	2_ground_force_vz	2_ground_force_px	2_ground_force_py	2_ground_force_pz	2_ground_torque_x	2_ground_torque_y	2_ground_torque_z
            3.751500	           10.539407	          639.144980	          -62.907287	           -0.266125	            0.006313	           -0.427722	           -0.003511	           -0.212899	            0.020954	           21.510671	          692.301206	           53.799685	           -0.249555	            0.005646	           -0.715403	           -0.037009	           -1.191111	           -0.092563
            3.752000	           10.035321	          643.109216	          -62.522183	           -0.266151	            0.006312	           -0.427564	           -0.002414	           -0.154679	            0.015038	           21.364388	          693.956018	           54.368796	           -0.249642	            0.005645	           -0.715227	           -0.038472	           -1.249636	           -0.097904
            3.752500	            9.714250	          646.533384	          -62.323277	           -0.266205	            0.006313	           -0.427679	            0.000296	            0.019719	           -0.001901	           21.215238	          696.349065	           54.471253	           -0.249686	            0.005645	           -0.715258	           -0.039390	           -1.292888	           -0.101135
            3.753000	            9.668531	          649.596743	          -62.034879	           -0.266112	            0.006313	           -0.427800	            0.000245	            0.016457	           -0.001572	           21.114309	          698.373788	           54.666234	           -0.249584	            0.005645	           -0.715224	           -0.038430	           -1.271094	           -0.099497
            3.753500	            9.347283	          652.120143	          -61.977409	           -0.266034	            0.006315	           -0.428107	            0.000449	            0.031304	           -0.002975	           21.390050	          699.848264	           54.577514	           -0.249681	            0.005645	           -0.715152	           -0.039158	           -1.281203	           -0.099914
            3.754000	            8.796509	          655.725350	          -61.960585	           -0.266271	            0.006313	           -0.427814	           -0.000315	           -0.023490	            0.002220	           21.054833	          701.872354	           54.678737	           -0.249584	            0.005645	           -0.715115	           -0.036623	           -1.220853	           -0.095109
            3.754500	            8.796144	          658.969800	          -61.854967	           -0.266190	            0.006314	           -0.427839	            0.000196	            0.014685	           -0.001378	           20.857067	          704.815874	           55.299395	           -0.249456	            0.005645	           -0.715158	           -0.036393	           -1.229826	           -0.096491
            3.755000	            8.521114	          661.312323	          -61.660813	           -0.266114	            0.006314	           -0.427981	            0.000762	            0.059153	           -0.005515	           20.381114	          706.840963	           54.978325	           -0.249521	            0.005645	           -0.715174	           -0.033784	           -1.171678	           -0.091134
            3.755500	            8.154054	          664.916975	          -61.506872	           -0.266136	            0.006314	           -0.427878	            0.002620	            0.213668	           -0.019765	           20.004506	          707.390586	           55.402809	           -0.249529	            0.005645	           -0.715082	           -0.034294	           -1.212674	           -0.094977
            3.756000	            7.879853	          667.077948	          -60.992495	           -0.266125	            0.006315	           -0.428184	            0.003208	            0.271574	           -0.024831	           19.526702	          709.966987	           55.412207	           -0.249602	            0.005645	           -0.715192	           -0.032644	           -1.186910	           -0.092637
            3.756500	            7.559450	          669.960367	          -60.566631	           -0.266137	            0.006315	           -0.428140	            0.003750	            0.332360	           -0.030046	           19.476547	          710.887415	           55.462441	           -0.249447	            0.005645	           -0.714976	           -0.032553	           -1.188185	           -0.092701
            3.757000	            7.330359	          673.023690	          -60.277786	           -0.266058	            0.006315	           -0.428171	            0.003643	            0.334437	           -0.029953	           19.329477	          712.727310	           55.750639	           -0.249329	            0.005646	           -0.715095	           -0.030637	           -1.129657	           -0.088364
            3.757500	            7.559979	          673.924110	          -60.045207	           -0.266198	            0.006317	           -0.428621	            0.003629	            0.323475	           -0.028821	           19.178333	          715.672841	           55.855068	           -0.249365	            0.005646	           -0.715136	           -0.030149	           -1.125062	           -0.087806
            3.758000	            7.147174	          676.987988	          -59.893479	           -0.266240	            0.006316	           -0.428492	            0.003605	            0.341465	           -0.030210	           18.851091	          715.487242	           55.948407	           -0.249295	            0.005645	           -0.714840	           -0.028232	           -1.071536	           -0.083790
            3.758500	            7.147839	          677.707674	          -59.569392	           -0.266133	            0.006318	           -0.428922	            0.005013	            0.475327	           -0.041780	           18.420882	          717.878940	           56.144840	           -0.249399	            0.005645	           -0.715077	           -0.026792	           -1.044115	           -0.081660
            3.759000	            7.056601	          681.491178	          -59.094373	           -0.266015	            0.006317	           -0.428613	            0.006896	            0.666003	           -0.057751	           17.807930	          718.981038	           56.336754	           -0.249345	            0.005645	           -0.714919	           -0.026033	           -1.051079	           -0.082359
            3.759500	            6.644044	          682.572360	          -58.996999	           -0.265931	            0.006319	           -0.429048	            0.006814	            0.700045	           -0.060507	           17.567738	          720.637185	           56.436624	           -0.249201	            0.005646	           -0.715035	           -0.025660	           -1.052580	           -0.082433
            3.760000	            6.278074	          685.814651	          -58.431905	           -0.266024	            0.006318	           -0.428820	            0.006122	            0.668819	           -0.056984	           17.331456	          721.189035	           56.344838	           -0.249111	            0.005646	           -0.714917	           -0.025210	           -1.049033	           -0.081958
            3.760500	            6.233969	          686.892955	          -57.647606	           -0.266136	            0.006320	           -0.429290	            0.006527	            0.719200	           -0.060359	           17.187183	          722.291318	           56.958906	           -0.249187	            0.005645	           -0.714891	           -0.025146	           -1.056768	           -0.083335
            3.761000	            5.913650	          688.693916	          -57.272233	           -0.266058	            0.006320	           -0.429277	            0.005233	            0.609470	           -0.050684	           16.759452	          723.947960	           56.730358	           -0.249107	            0.005646	           -0.714873	           -0.022246	           -0.960929	           -0.075301
